<svg id="svg" xmlns="http://www.w3.org/2000/svg" xmlns:xlink="http://www.w3.org/1999/xlink" width="400" height="272.5848563968668" viewBox="0, 0, 400,272.5848563968668" version="1.1"><g id="svgg"><path id="path0" d="M118.261 6.786 C 21.259 24.369,-22.654 137.728,37.243 215.929 C 90.812 285.868,200.975 282.026,249.436 208.529 C 256.110 198.406,256.359 199.650,246.621 194.462 L 238.411 190.087 234.393 196.610 C 182.541 280.773,47.886 253.892,30.810 155.969 C 10.094 37.177,167.118 -26.115,233.796 74.151 C 239.133 82.178,237.872 81.931,247.281 76.791 C 255.913 72.076,255.834 72.826,248.820 62.233 C 221.630 21.167,166.975 -2.044,118.261 6.786 M128.717 42.909 C 57.734 51.336,22.205 130.683,62.936 189.824 C 99.249 242.550,179.191 241.912,216.089 188.600 C 221.598 180.640,221.651 180.838,212.782 176.217 C 203.523 171.393,204.541 171.282,200.525 177.542 C 162.676 236.524,68.323 209.580,65.016 138.846 C 61.587 65.498,158.352 32.935,200.008 93.417 C 204.753 100.306,203.999 100.197,213.073 95.300 C 221.734 90.626,221.678 90.969,215.275 81.852 C 196.153 54.624,161.473 39.021,128.717 42.909 M118.248 88.310 C 115.625 90.147,114.929 97.801,117.180 100.052 C 119.166 102.038,124.064 101.575,125.290 99.285 C 128.932 92.479,123.774 84.439,118.248 88.310 M140.545 88.325 C 136.891 91.979,139.258 102.350,143.746 102.350 C 146.231 102.350,149.347 100.322,149.347 98.705 C 149.347 97.719,150.205 98.080,151.911 99.786 C 156.365 104.241,161.880 101.455,161.880 94.749 C 161.880 87.287,155.696 84.117,151.512 89.436 C 149.978 91.385,149.347 91.701,149.347 90.517 C 149.347 87.079,143.297 85.573,140.545 88.325 M128.460 88.806 C 128.460 89.398,129.164 90.153,130.026 90.484 C 131.123 90.905,131.593 92.616,131.593 96.195 C 131.593 100.041,131.980 101.305,133.159 101.305 C 134.391 101.305,134.726 99.855,134.726 94.517 L 134.726 87.728 131.593 87.728 C 129.869 87.728,128.460 88.213,128.460 88.806 M122.193 94.604 C 122.193 97.133,121.770 98.206,120.888 97.912 C 118.434 97.095,118.636 90.862,121.116 90.862 C 121.708 90.862,122.193 92.546,122.193 94.604 M145.170 94.517 C 145.170 96.527,144.700 98.172,144.125 98.172 C 143.551 98.172,143.081 96.527,143.081 94.517 C 143.081 92.507,143.551 90.862,144.125 90.862 C 144.700 90.862,145.170 92.507,145.170 94.517 M156.658 94.579 C 156.658 96.791,156.235 98.034,155.614 97.650 C 153.882 96.580,154.469 90.862,156.310 90.862 C 156.501 90.862,156.658 92.534,156.658 94.579 M232.376 103.537 C 224.382 108.029,224.498 121.077,232.568 125.204 C 237.492 127.722,246.475 126.705,246.475 123.629 C 246.475 121.140,246.187 120.945,243.342 121.514 C 234.222 123.338,229.059 112.908,236.627 107.950 C 238.794 106.530,239.949 106.418,242.939 107.335 C 246.525 108.436,246.592 108.402,246.276 105.665 C 245.911 102.511,236.710 101.102,232.376 103.537 M250.653 114.360 L 250.653 126.371 253.786 126.371 C 256.849 126.371,256.919 126.255,256.919 121.149 L 256.919 115.927 260.574 115.927 L 264.230 115.927 264.230 121.149 C 264.230 126.255,264.299 126.371,267.363 126.371 L 270.496 126.371 270.496 114.360 L 270.496 102.350 267.363 102.350 C 264.346 102.350,264.230 102.524,264.230 107.050 C 264.230 111.724,264.210 111.749,260.574 111.749 C 256.938 111.749,256.919 111.724,256.919 107.050 C 256.919 102.524,256.803 102.350,253.786 102.350 L 250.653 102.350 250.653 114.360 M278.429 113.008 C 276.187 118.921,274.139 124.347,273.879 125.065 C 273.565 125.932,274.504 126.371,276.677 126.371 C 279.204 126.371,280.173 125.778,280.940 123.760 C 281.773 121.568,282.612 121.149,286.162 121.149 C 289.712 121.149,290.551 121.568,291.384 123.760 C 292.141 125.751,293.127 126.371,295.536 126.371 C 299.556 126.371,299.526 125.938,294.634 113.316 L 290.586 102.872 286.546 102.564 L 282.507 102.255 278.429 113.008 M302.872 114.360 L 302.872 126.371 306.005 126.371 L 309.138 126.371 309.138 114.360 L 309.138 102.350 306.005 102.350 L 302.872 102.350 302.872 114.360 M314.360 114.360 L 314.360 126.371 317.493 126.371 C 320.518 126.371,320.627 126.205,320.627 121.594 C 320.627 114.491,324.045 115.534,326.868 123.499 C 327.681 125.793,328.535 126.371,331.115 126.371 C 334.655 126.371,334.671 125.976,331.453 118.114 C 330.185 115.018,330.201 114.331,331.578 112.810 C 336.594 107.268,331.827 102.350,321.439 102.350 L 314.360 102.350 314.360 114.360 M337.337 114.360 L 337.337 126.371 346.214 126.371 C 354.987 126.371,355.091 126.340,355.091 123.760 C 355.091 121.323,354.743 121.149,349.869 121.149 C 345.151 121.149,344.647 120.922,344.646 118.799 C 344.645 116.730,345.176 116.449,349.085 116.449 C 352.894 116.449,353.572 116.115,353.859 114.099 C 354.163 111.956,353.772 111.749,349.420 111.749 C 345.344 111.749,344.648 111.445,344.648 109.661 C 344.648 107.881,345.344 107.572,349.347 107.572 C 353.664 107.572,354.047 107.359,354.047 104.961 C 354.047 102.393,353.908 102.350,345.692 102.350 L 337.337 102.350 337.337 114.360 M99.734 105.490 C 99.377 106.069,99.819 106.824,100.717 107.169 C 101.890 107.619,102.350 109.234,102.350 112.905 C 102.350 116.752,102.737 118.016,103.916 118.016 C 105.148 118.016,105.483 116.565,105.483 111.227 C 105.483 104.531,102.294 101.348,99.734 105.490 M111.302 106.080 C 107.761 109.620,110.627 119.060,115.243 119.060 C 119.262 119.060,122.016 108.857,118.851 105.692 C 117.094 103.934,113.250 104.132,111.302 106.080 M122.622 107.045 C 118.812 112.860,123.823 121.056,129.372 118.086 C 131.918 116.723,132.603 107.955,130.339 105.692 C 128.236 103.588,124.453 104.252,122.622 107.045 M134.726 106.005 C 134.726 106.867,135.171 107.572,135.716 107.572 C 136.260 107.572,136.848 110.002,137.021 112.973 C 137.532 121.708,139.948 120.770,139.948 111.836 C 139.948 104.642,139.876 104.439,137.337 104.439 C 135.712 104.439,134.726 105.030,134.726 106.005 M146.423 105.692 C 144.594 107.521,144.857 115.465,146.811 117.419 C 151.855 122.463,158.244 113.395,154.532 106.459 C 153.307 104.169,148.409 103.706,146.423 105.692 M157.702 106.005 C 157.702 106.867,158.172 107.572,158.747 107.572 C 159.321 107.572,159.791 110.157,159.791 113.316 C 159.791 118.364,160.044 119.060,161.880 119.060 C 163.770 119.060,163.969 118.364,163.969 111.749 L 163.969 104.439 160.836 104.439 C 158.747 104.439,157.702 104.961,157.702 106.005 M169.399 105.692 C 165.946 109.145,169.024 119.060,173.550 119.060 C 177.724 119.060,180.590 108.945,177.337 105.692 C 175.721 104.076,171.015 104.076,169.399 105.692 M116.971 111.227 C 116.971 113.780,116.499 114.883,115.405 114.883 C 114.311 114.883,113.838 113.780,113.838 111.227 C 113.838 108.674,114.311 107.572,115.405 107.572 C 116.499 107.572,116.971 108.674,116.971 111.227 M128.261 111.488 C 128.083 113.642,127.467 115.405,126.893 115.405 C 126.319 115.405,125.703 113.642,125.524 111.488 C 125.272 108.440,125.576 107.572,126.893 107.572 C 128.210 107.572,128.514 108.440,128.261 111.488 M151.436 111.227 C 151.436 113.780,150.964 114.883,149.869 114.883 C 148.272 114.883,147.588 109.680,148.999 108.268 C 150.560 106.707,151.436 107.771,151.436 111.227 M174.413 111.227 C 174.413 113.238,173.943 114.883,173.368 114.883 C 172.794 114.883,172.324 113.238,172.324 111.227 C 172.324 109.217,172.794 107.572,173.368 107.572 C 173.943 107.572,174.413 109.217,174.413 111.227 M326.427 108.707 C 327.303 110.124,325.971 111.467,323.238 111.923 C 321.733 112.174,321.055 111.614,320.815 109.922 C 320.452 107.369,324.992 106.386,326.427 108.707 M287.617 111.313 C 288.927 114.727,288.302 116.971,286.040 116.971 C 284.257 116.971,283.951 116.517,284.459 114.621 C 284.806 113.329,285.095 111.684,285.103 110.966 C 285.124 109.108,286.863 109.348,287.617 111.313 M170.467 121.730 C 167.834 123.575,167.111 132.229,169.399 134.517 C 171.346 136.464,176.209 136.019,177.799 133.748 C 179.200 131.748,179.229 131.748,180.478 133.748 C 184.019 139.418,192.010 134.040,190.669 126.890 C 189.476 120.533,179.634 118.186,179.634 124.259 C 179.634 124.794,178.481 124.078,177.071 122.668 C 174.058 119.655,173.536 119.581,170.467 121.730 M88.325 122.790 C 84.634 126.481,87.326 135.770,92.087 135.770 C 96.212 135.770,98.645 128.024,96.047 123.169 C 94.739 120.725,90.594 120.521,88.325 122.790 M99.217 122.715 C 99.217 123.577,99.922 124.282,100.783 124.282 C 101.986 124.282,102.350 125.616,102.350 130.026 C 102.350 134.436,102.714 135.770,103.916 135.770 C 105.160 135.770,105.483 134.262,105.483 128.460 L 105.483 121.149 102.350 121.149 C 100.261 121.149,99.217 121.671,99.217 122.715 M111.389 123.059 C 106.306 128.676,113.172 139.420,118.463 134.129 C 120.417 132.175,120.680 124.231,118.851 122.402 C 117.006 120.556,113.364 120.877,111.389 123.059 M122.790 122.790 C 121.887 123.693,121.149 125.938,121.149 127.780 C 121.149 134.715,126.991 138.189,131.071 133.681 L 132.962 131.592 134.425 133.681 C 136.300 136.358,140.136 136.358,142.559 133.681 L 144.450 131.592 145.914 133.681 C 150.743 140.576,158.673 130.905,154.532 123.169 C 153.071 120.438,147.846 120.480,145.914 123.238 L 144.450 125.327 142.559 123.238 C 140.274 120.713,137.115 120.553,134.593 122.836 C 132.877 124.389,132.595 124.389,131.042 122.836 C 128.896 120.690,124.912 120.668,122.790 122.790 M157.702 122.715 C 157.702 123.577,158.172 124.282,158.747 124.282 C 159.321 124.282,159.791 126.867,159.791 130.026 C 159.791 135.074,160.044 135.770,161.880 135.770 C 163.770 135.770,163.969 135.074,163.969 128.460 L 163.969 121.149 160.836 121.149 C 158.747 121.149,157.702 121.671,157.702 122.715 M92.950 128.460 C 92.950 130.757,92.480 132.637,91.906 132.637 C 91.332 132.637,90.862 130.757,90.862 128.460 C 90.862 126.162,91.332 124.282,91.906 124.282 C 92.480 124.282,92.950 126.162,92.950 128.460 M116.449 128.285 C 116.449 133.042,114.423 132.877,114.030 128.088 C 113.786 125.121,114.061 124.182,115.074 124.520 C 115.830 124.772,116.449 126.466,116.449 128.285 M128.460 128.521 C 128.460 130.555,127.930 131.593,126.893 131.593 C 125.313 131.593,124.604 126.397,125.994 125.007 C 127.258 123.743,128.460 125.455,128.460 128.521 M139.948 128.521 C 139.948 130.555,139.419 131.593,138.381 131.593 C 136.802 131.593,136.093 126.397,137.482 125.007 C 138.746 123.743,139.948 125.455,139.948 128.521 M151.436 128.521 C 151.436 130.211,150.966 131.593,150.392 131.593 C 149.817 131.593,149.347 129.920,149.347 127.876 C 149.347 125.664,149.770 124.420,150.392 124.804 C 150.966 125.159,151.436 126.832,151.436 128.521 M174.413 128.460 C 174.413 130.183,173.943 131.593,173.368 131.593 C 172.794 131.593,172.324 130.183,172.324 128.460 C 172.324 126.736,172.794 125.326,173.368 125.326 C 173.943 125.326,174.413 126.736,174.413 128.460 M185.901 128.460 C 185.901 130.183,185.431 131.593,184.856 131.593 C 184.282 131.593,183.812 130.183,183.812 128.460 C 183.812 126.736,184.282 125.326,184.856 125.326 C 185.431 125.326,185.901 126.736,185.901 128.460 M88.413 139.769 C 86.223 142.188,86.172 148.686,88.325 150.839 C 90.594 153.108,94.739 152.905,96.047 150.460 C 99.957 143.153,93.515 134.131,88.413 139.769 M99.654 139.041 C 99.252 139.691,99.694 140.654,100.637 141.182 C 101.865 141.869,102.350 143.604,102.350 147.310 C 102.350 151.210,102.735 152.480,103.916 152.480 C 105.160 152.480,105.483 150.972,105.483 145.170 C 105.483 137.868,102.389 134.615,99.654 139.041 M111.749 139.948 C 107.811 143.887,110.215 152.480,115.255 152.480 C 118.719 152.480,120.104 150.503,120.104 145.558 C 120.104 138.557,115.938 135.760,111.749 139.948 M123.238 139.426 C 123.238 140.287,123.708 140.992,124.282 140.992 C 124.856 140.992,125.326 143.577,125.326 146.736 C 125.326 151.146,125.690 152.480,126.893 152.480 C 128.136 152.480,128.460 150.972,128.460 145.170 C 128.460 138.068,128.385 137.859,125.849 137.859 C 124.224 137.859,123.238 138.451,123.238 139.426 M134.726 139.948 C 132.227 142.446,132.022 146.961,134.263 150.159 C 137.638 154.978,144.125 151.543,144.125 144.937 C 144.125 141.808,140.921 137.859,138.381 137.859 C 137.520 137.859,135.875 138.799,134.726 139.948 M146.214 139.356 C 146.214 140.256,146.684 140.992,147.258 140.992 C 147.833 140.992,148.303 143.577,148.303 146.736 C 148.303 151.827,148.546 152.480,150.439 152.480 C 154.309 152.480,152.998 138.501,149.086 138.051 C 147.035 137.815,146.214 138.188,146.214 139.356 M158.486 138.987 C 156.314 140.252,155.894 149.210,157.911 151.227 C 161.302 154.618,167.102 151.056,167.102 145.581 C 167.102 139.581,162.938 136.394,158.486 138.987 M169.875 139.769 C 167.686 142.188,167.634 148.686,169.787 150.839 C 172.056 153.108,176.201 152.905,177.509 150.460 C 181.419 143.153,174.977 134.131,169.875 139.769 M181.363 139.769 C 179.174 142.188,179.123 148.686,181.276 150.839 C 185.117 154.680,190.078 151.534,190.078 145.257 C 190.078 138.910,185.022 135.726,181.363 139.769 M240.337 140.945 C 220.289 145.960,223.003 174.048,243.743 176.188 C 253.381 177.183,256.919 176.025,256.919 171.875 L 256.919 168.387 250.189 168.927 C 241.577 169.618,237.076 166.128,237.076 158.758 C 237.076 149.062,243.222 145.600,254.569 148.906 C 257.433 149.741,258.201 142.752,255.365 141.664 C 252.296 140.486,243.796 140.079,240.337 140.945 M92.950 145.170 C 92.950 147.467,92.480 149.347,91.906 149.347 C 91.332 149.347,90.862 147.467,90.862 145.170 C 90.862 142.872,91.332 140.992,91.906 140.992 C 92.480 140.992,92.950 142.872,92.950 145.170 M116.449 145.170 C 116.449 147.084,115.862 148.847,115.144 149.086 C 114.238 149.388,113.838 148.187,113.838 145.170 C 113.838 142.153,114.238 140.952,115.144 141.253 C 115.862 141.493,116.449 143.255,116.449 145.170 M139.768 145.597 C 139.580 147.121,138.956 148.471,138.381 148.596 C 137.126 148.871,136.392 144.644,137.288 142.308 C 138.266 139.760,140.177 142.294,139.768 145.597 M162.924 145.257 C 162.924 148.201,162.520 149.388,161.619 149.091 C 159.151 148.279,159.356 140.992,161.847 140.992 C 162.440 140.992,162.924 142.911,162.924 145.257 M174.413 145.170 C 174.413 147.467,173.943 149.347,173.368 149.347 C 172.794 149.347,172.324 147.467,172.324 145.170 C 172.324 142.872,172.794 140.992,173.368 140.992 C 173.943 140.992,174.413 142.872,174.413 145.170 M185.901 145.170 C 185.901 147.467,185.431 149.347,184.856 149.347 C 184.282 149.347,183.812 147.467,183.812 145.170 C 183.812 142.872,184.282 140.992,184.856 140.992 C 185.431 140.992,185.901 142.872,185.901 145.170 M259.008 141.381 C 259.008 141.595,261.696 146.177,264.982 151.564 C 270.378 160.410,271.010 162.065,271.509 168.668 L 272.063 175.979 276.501 176.300 L 280.940 176.621 280.940 169.870 C 280.940 163.487,281.282 162.543,287.206 152.565 C 294.719 139.913,294.620 140.992,288.266 140.992 L 283.059 140.992 279.896 147.258 C 278.156 150.705,276.511 153.525,276.240 153.525 C 275.970 153.525,274.325 150.705,272.585 147.258 L 269.422 140.992 264.215 140.992 C 261.351 140.992,259.008 141.167,259.008 141.381 M297.650 158.868 L 297.650 176.744 308.065 176.326 C 316.536 175.986,319.022 175.504,321.381 173.748 C 326.805 169.710,327.247 161.904,322.183 159.597 L 319.620 158.429 322.212 156.027 C 330.336 148.498,323.248 140.992,308.014 140.992 L 297.650 140.992 297.650 158.868 M331.070 158.780 L 331.070 176.568 343.342 176.273 L 355.614 175.979 355.941 172.585 L 356.268 169.191 347.847 169.191 L 339.426 169.191 339.426 165.535 L 339.426 161.880 346.736 161.880 L 354.047 161.880 354.047 158.225 L 354.047 154.569 346.670 154.569 L 339.293 154.569 339.621 151.175 L 339.948 147.781 347.520 147.474 L 355.091 147.167 355.091 144.080 L 355.091 140.992 343.081 140.992 L 331.070 140.992 331.070 158.780 M361.358 158.807 L 361.358 176.621 365.796 176.300 L 370.235 175.979 370.544 168.930 C 370.985 158.866,375.332 159.542,378.932 170.235 C 380.879 176.020,386.526 178.905,389.697 175.734 C 390.618 174.812,386.445 162.857,384.299 160.271 C 383.433 159.227,383.659 158.623,385.228 157.783 C 388.378 156.097,390.029 150.096,388.322 146.535 C 386.211 142.133,382.847 141.025,371.540 141.008 L 361.358 140.992 361.358 158.807 M314.826 149.396 C 316.565 151.134,313.970 154.013,310.339 154.374 C 307.185 154.688,307.050 154.543,307.050 150.849 C 307.050 146.893,311.493 146.063,314.826 149.396 M376.433 148.277 C 381.773 150.307,379.495 155.614,373.283 155.614 C 371.033 155.614,370.757 155.158,370.757 151.436 C 370.757 146.928,371.621 146.448,376.433 148.277 M111.749 156.658 C 107.536 160.871,109.874 169.191,115.270 169.191 C 118.722 169.191,120.104 167.206,120.104 162.252 C 120.104 155.665,115.695 152.712,111.749 156.658 M124.063 155.674 C 119.338 158.428,121.445 169.191,126.708 169.191 C 130.295 169.191,131.593 167.203,131.593 161.708 C 131.593 155.485,128.558 153.053,124.063 155.674 M135.210 156.034 C 132.814 157.786,132.446 164.878,134.616 167.492 C 138.509 172.182,144.944 167.095,143.675 160.331 C 142.709 155.182,138.971 153.285,135.210 156.034 M158.979 156.195 C 154.364 159.428,156.252 169.191,161.492 169.191 C 166.888 169.191,169.226 160.871,165.013 156.658 C 162.499 154.144,161.966 154.103,158.979 156.195 M170.467 156.195 C 165.888 159.402,167.944 169.191,173.196 169.191 C 177.208 169.191,178.590 167.413,178.590 162.252 C 178.590 158.214,176.113 154.569,173.368 154.569 C 173.049 154.569,171.744 155.301,170.467 156.195 M99.217 156.691 C 99.217 157.283,99.922 158.038,100.783 158.369 C 101.880 158.790,102.350 160.501,102.350 164.080 C 102.350 167.927,102.737 169.191,103.916 169.191 C 105.148 169.191,105.483 167.740,105.483 162.402 L 105.483 155.614 102.350 155.614 C 100.627 155.614,99.217 156.098,99.217 156.691 M146.214 156.596 C 146.214 157.137,146.684 157.870,147.258 158.225 C 147.833 158.580,148.303 161.192,148.303 164.030 C 148.303 168.494,148.585 169.191,150.392 169.191 C 152.266 169.191,152.480 168.494,152.480 162.402 L 152.480 155.614 149.347 155.614 C 147.624 155.614,146.214 156.056,146.214 156.596 M116.776 162.061 C 116.304 166.848,113.838 167.208,113.838 162.489 C 113.838 159.791,114.294 158.747,115.471 158.747 C 116.677 158.747,117.018 159.612,116.776 162.061 M128.460 162.402 C 128.460 164.955,127.987 166.057,126.893 166.057 C 125.799 166.057,125.326 164.955,125.326 162.402 C 125.326 159.849,125.799 158.747,126.893 158.747 C 127.987 158.747,128.460 159.849,128.460 162.402 M139.948 162.402 C 139.948 164.955,139.475 166.057,138.381 166.057 C 137.287 166.057,136.815 164.955,136.815 162.402 C 136.815 159.849,137.287 158.747,138.381 158.747 C 139.475 158.747,139.948 159.849,139.948 162.402 M162.924 162.489 C 162.924 167.208,160.459 166.848,159.986 162.061 C 159.744 159.612,160.085 158.747,161.292 158.747 C 162.469 158.747,162.924 159.791,162.924 162.489 M174.413 162.402 C 174.413 164.413,173.996 166.057,173.487 166.057 C 172.480 166.057,171.314 160.105,172.156 159.263 C 173.539 157.880,174.413 159.095,174.413 162.402 M314.128 162.461 C 318.360 165.425,315.898 169.191,309.729 169.191 C 307.299 169.191,307.050 168.801,307.050 165.013 C 307.050 160.284,309.670 159.339,314.128 162.461 M116.971 173.890 C 116.971 174.752,117.417 175.457,117.961 175.457 C 118.505 175.457,119.093 177.924,119.267 180.940 C 119.771 189.694,122.624 188.504,123.024 179.373 L 123.333 172.324 120.152 172.324 C 118.021 172.324,116.971 172.841,116.971 173.890 M128.460 173.307 C 128.460 173.847,128.930 174.580,129.504 174.935 C 130.078 175.290,130.548 177.902,130.548 180.740 C 130.548 185.205,130.830 185.901,132.637 185.901 C 134.512 185.901,134.726 185.205,134.726 179.112 L 134.726 172.324 131.593 172.324 C 129.869 172.324,128.460 172.766,128.460 173.307 M139.948 173.159 C 139.948 173.619,140.497 174.544,141.168 175.215 C 141.840 175.887,142.427 178.440,142.474 180.889 C 142.633 189.252,146.214 187.625,146.214 179.189 L 146.214 172.324 143.081 172.324 C 141.358 172.324,139.948 172.700,139.948 173.159 M151.312 175.196 C 148.627 182.105,154.339 188.948,159.332 184.804 C 161.166 183.282,161.343 175.338,159.582 173.577 C 157.163 171.158,152.529 172.065,151.312 175.196 M157.702 179.112 C 157.702 181.665,157.230 182.768,156.136 182.768 C 155.042 182.768,154.569 181.665,154.569 179.112 C 154.569 176.559,155.042 175.457,156.136 175.457 C 157.230 175.457,157.702 176.559,157.702 179.112 " stroke="none" fill-rule="evenodd"></path></g></svg>