<svg id="svg" xmlns="http://www.w3.org/2000/svg" xmlns:xlink="http://www.w3.org/1999/xlink" width="400" height="637.8378378378378" viewBox="0, 0, 400,637.8378378378378" version="1.1"><g id="svgg"><path id="path0" d="M0.000 45.946 C 0.000 71.216,0.635 91.892,1.411 91.892 C 2.188 91.892,12.221 87.180,23.709 81.420 C 125.955 30.156,249.480 16.582,368.055 43.580 C 381.908 46.734,394.764 50.530,396.622 52.016 C 399.280 54.140,400.000 48.883,400.000 27.358 L 400.000 0.000 200.000 0.000 L 0.000 0.000 0.000 45.946 M275.676 70.582 C 174.248 82.159,73.997 122.792,8.478 178.880 C 1.557 184.805,-0.000 188.155,-0.000 197.123 C 0.000 210.741,0.112 210.735,17.137 196.215 C 53.623 165.095,109.680 133.305,160.521 114.901 C 191.393 103.726,195.265 103.118,177.525 112.229 C 149.192 126.783,128.450 151.191,120.148 179.752 C 116.547 192.139,114.052 195.332,100.578 204.799 C 67.532 228.018,29.927 268.216,7.144 304.676 L 0.000 316.109 0.000 405.352 L 0.000 494.595 38.201 494.595 L 76.401 494.595 61.493 480.270 C 14.046 434.681,15.700 382.321,66.201 331.272 C 75.112 322.264,82.052 313.368,81.623 311.501 C 81.167 309.513,83.501 308.108,87.263 308.108 C 91.343 308.108,94.998 305.647,97.297 301.351 C 99.286 297.635,103.069 294.595,105.703 294.595 C 108.337 294.595,111.243 293.378,112.162 291.892 C 113.081 290.405,119.842 289.189,127.187 289.189 C 134.531 289.189,140.541 290.405,140.541 291.892 C 140.541 302.845,168.032 283.599,173.336 268.933 C 176.360 260.569,177.932 259.494,189.024 258.208 C 195.804 257.422,209.257 255.607,218.919 254.175 C 236.267 251.603,236.689 251.692,252.703 261.297 C 265.145 268.760,272.064 271.094,282.432 271.326 L 295.946 271.627 306.993 292.802 C 324.616 326.582,333.496 373.618,328.800 408.311 C 326.564 424.827,327.119 432.749,332.500 461.167 L 338.830 494.595 368.019 494.595 L 397.209 494.595 397.975 566.892 C 398.396 606.655,399.024 524.189,399.370 383.633 L 400.000 128.077 363.853 127.355 C 343.972 126.957,317.735 128.090,305.548 129.872 L 283.391 133.112 274.803 124.828 C 260.958 111.472,239.246 102.796,218.919 102.497 C 196.925 102.173,203.352 99.792,248.649 91.484 C 283.986 85.002,371.561 83.149,389.865 88.496 L 400.000 91.456 400.000 79.512 L 400.000 67.568 347.973 67.918 C 319.358 68.111,286.824 69.310,275.676 70.582 M254.373 116.820 C 277.753 130.521,278.322 133.140,260.291 144.065 C 244.883 153.401,244.172 153.551,221.622 152.215 C 186.547 150.138,165.602 163.889,161.117 191.939 C 160.136 198.073,156.625 206.759,153.315 211.241 C 147.996 218.442,147.297 222.671,147.297 247.652 C 147.297 275.089,147.111 275.961,140.926 277.512 C 125.305 281.429,115.449 210.679,126.956 177.233 C 146.004 121.871,210.672 91.209,254.373 116.820 M236.980 159.305 C 248.120 164.363,248.406 164.843,256.610 192.354 C 263.473 215.365,273.085 241.644,283.041 264.618 C 285.755 270.881,268.500 266.027,253.241 256.235 L 239.884 247.664 213.861 250.885 C 175.233 255.666,175.676 255.739,175.676 244.595 L 175.676 235.135 191.489 235.135 C 210.061 235.135,222.274 231.510,234.637 222.327 C 247.381 212.860,243.316 211.659,228.305 220.456 C 213.136 229.346,176.951 233.429,172.759 226.725 C 147.295 185.996,192.120 138.938,236.980 159.305 M281.406 221.622 C 283.815 240.203,285.491 255.756,285.131 256.185 C 281.602 260.389,260.586 193.926,263.800 188.726 C 271.056 176.986,277.079 188.241,281.406 221.622 M245.247 276.158 C 247.092 278.396,247.801 281.027,246.823 282.005 C 245.845 282.984,247.072 283.784,249.550 283.784 C 255.981 283.784,255.113 279.133,247.973 275.328 C 242.672 272.504,242.322 272.610,245.247 276.158 M259.406 291.489 C 254.153 299.431,247.961 305.120,242.576 306.952 L 234.056 309.850 244.731 315.060 C 251.472 318.351,255.711 322.417,256.236 326.097 C 256.721 329.502,259.617 332.564,263.203 333.464 C 266.983 334.413,272.178 340.220,276.731 348.583 C 283.328 360.705,292.023 368.040,288.303 358.345 C 287.497 356.246,285.333 344.692,283.492 332.670 C 280.252 311.504,279.913 310.811,272.795 310.811 C 260.697 310.811,261.332 288.619,273.560 284.096 L 279.331 281.961 273.524 280.442 C 268.857 279.222,266.084 281.391,259.406 291.489 M76.294 385.800 C 63.926 390.031,61.953 426.052,72.782 449.918 C 78.102 461.641,102.703 487.346,102.703 481.181 C 102.703 479.130,104.610 475.345,106.941 472.769 C 110.160 469.213,110.487 466.885,108.301 463.097 C 104.736 456.920,92.483 424.029,88.319 409.459 C 86.619 403.514,84.418 398.041,83.427 397.297 C 82.437 396.554,81.199 393.399,80.678 390.285 C 80.151 387.137,78.205 385.146,76.294 385.800 M280.550 443.485 C 279.470 446.724,255.802 454.030,239.865 456.044 C 227.972 457.547,228.181 456.528,235.383 477.854 L 241.037 494.595 275.924 494.595 C 302.085 494.595,310.786 493.750,310.711 491.216 C 310.236 475.063,302.686 450.000,296.970 445.605 C 289.744 440.048,282.028 439.052,280.550 443.485 M28.829 539.640 C 27.838 540.631,27.027 558.874,27.027 580.180 L 27.027 618.919 37.838 618.919 L 48.649 618.919 48.649 578.378 L 48.649 537.838 39.640 537.838 C 34.685 537.838,29.820 538.649,28.829 539.640 M66.667 539.640 C 65.676 540.631,64.865 558.874,64.865 580.180 L 64.865 618.919 75.676 618.919 L 86.486 618.919 86.486 602.703 L 86.486 586.486 98.649 586.486 L 110.811 586.486 110.811 602.703 L 110.811 618.919 121.694 618.919 L 132.577 618.919 131.829 579.054 L 131.081 539.189 120.946 538.350 L 110.811 537.512 110.811 553.891 L 110.811 570.270 98.649 570.270 L 86.486 570.270 86.486 554.054 L 86.486 537.838 77.477 537.838 C 72.523 537.838,67.658 538.649,66.667 539.640 M213.514 578.326 L 213.514 619.564 239.156 618.442 C 310.260 615.332,308.904 542.527,237.666 538.465 L 213.514 537.088 213.514 578.326 M300.000 578.378 L 300.000 618.919 309.459 618.919 L 318.919 618.919 319.077 593.919 L 319.236 568.919 331.848 593.919 L 344.460 618.919 358.789 618.919 L 373.117 618.919 372.370 579.054 L 371.622 539.189 362.838 538.342 L 354.054 537.495 353.916 564.018 L 353.778 590.541 340.376 564.189 L 326.974 537.838 313.487 537.838 L 300.000 537.838 300.000 578.378 M143.243 579.730 L 143.243 618.919 172.973 618.919 L 202.703 618.919 202.703 610.811 L 202.703 602.703 185.135 602.703 L 167.568 602.703 167.568 594.729 C 167.568 586.919,167.884 586.740,183.108 585.946 C 197.667 585.186,198.649 584.708,198.649 578.378 C 198.649 572.049,197.667 571.570,183.108 570.811 C 167.884 570.017,167.568 569.838,167.568 562.027 C 167.568 554.084,167.629 554.054,183.784 554.054 C 199.279 554.054,200.000 553.754,200.000 547.297 L 200.000 540.541 171.622 540.541 L 143.243 540.541 143.243 579.730 M255.200 559.858 C 269.647 566.440,269.609 593.037,255.144 599.627 C 237.705 607.573,235.135 605.017,235.135 579.730 C 235.135 554.426,237.701 551.885,255.200 559.858 " stroke="none" fill-rule="evenodd"></path></g></svg>
