<svg id="svg" xmlns="http://www.w3.org/2000/svg" xmlns:xlink="http://www.w3.org/1999/xlink" width="400" height="400" viewBox="0, 0, 400,400"><g id="svgg"><path id="path0" d="M188.400 8.479 C 10.328 21.833,-57.482 245.038,83.843 352.645 C 201.127 441.948,371.734 369.398,390.057 222.430 C 404.628 105.550,304.902 -0.257,188.400 8.479 M220.605 46.796 C 345.539 64.556,398.106 215.307,311.240 306.714 C 231.613 390.503,88.972 358.253,52.866 248.298 C 17.373 140.211,108.413 30.847,220.605 46.796 M193.678 90.510 C 194.556 91.743,195.601 92.953,196.000 93.200 C 196.399 93.447,197.538 94.807,198.531 96.224 C 199.769 97.989,199.902 98.451,198.956 97.692 C 197.758 96.730,196.489 96.923,189.387 99.147 C 174.476 103.817,164.450 107.288,160.400 109.184 C 158.200 110.214,153.160 112.281,149.200 113.778 C 137.487 118.205,124.343 124.024,112.400 130.070 L 101.200 135.740 100.642 144.870 C 96.651 210.134,133.627 273.698,195.194 307.413 L 197.773 308.825 193.087 314.187 L 188.400 319.549 191.600 317.663 C 197.880 313.963,215.216 302.231,215.803 301.285 C 216.131 300.755,218.740 298.544,221.600 296.371 C 251.346 273.768,274.668 245.003,284.823 218.393 C 286.249 214.657,287.717 211.216,288.084 210.747 C 289.157 209.377,292.772 195.303,293.619 189.200 C 294.047 186.120,294.772 181.440,295.231 178.800 C 297.629 165.010,299.105 138.214,297.569 136.363 C 295.243 133.560,269.495 119.919,250.800 111.584 C 245.080 109.034,240.220 106.697,240.000 106.389 C 239.780 106.082,238.250 105.583,236.600 105.279 C 234.950 104.976,233.600 104.415,233.600 104.034 C 233.600 103.199,225.263 99.909,206.241 93.235 C 192.210 88.313,192.096 88.288,193.678 90.510 M202.130 100.600 C 211.900 112.962,225.244 136.886,230.078 150.708 L 232.284 157.016 239.542 156.488 C 243.534 156.197,248.102 155.657,249.693 155.288 C 255.731 153.887,256.715 156.909,252.411 163.638 C 235.678 189.795,235.730 211.746,252.566 229.662 C 257.240 234.636,255.549 235.983,247.050 234.054 C 244.272 233.424,240.608 232.800,238.906 232.666 L 235.812 232.424 234.380 238.064 C 229.027 259.143,214.057 289.159,201.495 304.000 L 199.803 306.000 194.228 300.000 C 173.907 278.126,159.191 240.721,157.855 207.545 L 157.370 195.491 152.885 192.590 C 150.418 190.995,146.240 188.754,143.600 187.610 C 135.295 184.013,134.800 183.674,134.800 181.569 C 134.800 179.821,135.294 179.502,139.200 178.731 C 152.135 176.175,160.533 172.033,161.632 167.668 C 168.240 141.405,179.987 119.040,194.967 104.200 C 200.582 98.637,200.580 98.638,202.130 100.600 M188.615 143.010 C 180.657 162.643,165.612 175.935,145.529 181.075 L 141.249 182.170 144.921 183.794 C 168.644 194.288,180.467 218.556,172.198 239.780 L 170.569 243.959 173.485 244.424 C 175.088 244.679,182.047 246.128,188.949 247.644 C 204.275 251.010,203.200 251.034,203.200 247.326 C 203.200 239.937,209.609 233.501,220.158 230.297 C 225.857 228.566,242.873 228.378,246.685 230.003 C 247.692 230.433,247.202 229.375,245.162 226.718 C 232.237 209.881,233.237 188.216,248.091 163.290 L 250.659 158.980 247.929 159.479 C 223.627 163.917,201.693 156.326,193.218 140.546 C 191.161 136.715,191.169 136.710,188.615 143.010 " stroke="none" fill-rule="evenodd"></path></g></svg>